<?xml version="1.0" encoding="UTF-8" standalone="no"?>
<!-- Created with Inkscape (http://www.inkscape.org/) -->
<svg
   xmlns:dc="http://purl.org/dc/elements/1.1/"
   xmlns:cc="http://creativecommons.org/ns#"
   xmlns:rdf="http://www.w3.org/1999/02/22-rdf-syntax-ns#"
   xmlns:svg="http://www.w3.org/2000/svg"
   xmlns="http://www.w3.org/2000/svg"
   xmlns:xlink="http://www.w3.org/1999/xlink"
   xmlns:sodipodi="http://sodipodi.sourceforge.net/DTD/sodipodi-0.dtd"
   xmlns:inkscape="http://www.inkscape.org/namespaces/inkscape"
   width="744.09448819"
   height="1052.3622047"
   id="svg3936"
   sodipodi:version="0.32"
   inkscape:version="0.46"
   sodipodi:docname="bubbles.svg"
   inkscape:output_extension="org.inkscape.output.svg.inkscape"
   inkscape:export-filename="C:\VAHillsPool\testing\images\site\bubbles.png"
   inkscape:export-xdpi="32.474224"
   inkscape:export-ydpi="32.474224">
  <defs
     id="defs3938">
    <linearGradient
       id="linearGradient4653">
      <stop
         style="stop-color:#008dff;stop-opacity:0.66371679;"
         offset="0"
         id="stop4655" />
      <stop
         style="stop-color:#008dff;stop-opacity:0;"
         offset="1"
         id="stop4657" />
    </linearGradient>
    <linearGradient
       id="linearGradient4493">
      <stop
         style="stop-color:#008dff;stop-opacity:0.55752212;"
         offset="0"
         id="stop4495" />
      <stop
         style="stop-color:#008dff;stop-opacity:0;"
         offset="1"
         id="stop4497" />
    </linearGradient>
    <inkscape:perspective
       sodipodi:type="inkscape:persp3d"
       inkscape:vp_x="0 : 526.18109 : 1"
       inkscape:vp_y="0 : 1000 : 0"
       inkscape:vp_z="744.09448 : 526.18109 : 1"
       inkscape:persp3d-origin="372.04724 : 350.78739 : 1"
       id="perspective3944" />
    <filter
       inkscape:collect="always"
       id="filter4487">
      <feGaussianBlur
         inkscape:collect="always"
         stdDeviation="4.6056265"
         id="feGaussianBlur4489" />
    </filter>
    <linearGradient
       inkscape:collect="always"
       xlink:href="#linearGradient4493"
       id="linearGradient4499"
       x1="334.3605"
       y1="286.13495"
       x2="334.3605"
       y2="407.94189"
       gradientUnits="userSpaceOnUse" />
    <clipPath
       clipPathUnits="userSpaceOnUse"
       id="clipPath4507">
      <path
         transform="translate(1.503357,-16.162441)"
         d="M 405.71429,405.21933 A 72.85714,72.85714 0 1 1 260.00001,405.21933 A 72.85714,72.85714 0 1 1 405.71429,405.21933 z"
         sodipodi:ry="72.85714"
         sodipodi:rx="72.85714"
         sodipodi:cy="405.21933"
         sodipodi:cx="332.85715"
         id="path4509"
         style="opacity:0.6829971;fill:none;fill-opacity:1;stroke:#008dff;stroke-width:8.80000019;stroke-miterlimit:4;stroke-dasharray:none;stroke-opacity:1"
         sodipodi:type="arc" />
    </clipPath>
    <clipPath
       clipPathUnits="userSpaceOnUse"
       id="clipPath4511">
      <path
         d="M 405.71429,405.21933 A 72.85714,72.85714 0 1 1 260.00001,405.21933 A 72.85714,72.85714 0 1 1 405.71429,405.21933 z"
         sodipodi:ry="72.85714"
         sodipodi:rx="72.85714"
         sodipodi:cy="405.21933"
         sodipodi:cx="332.85715"
         id="path4513"
         style="opacity:0.6829971;fill:none;fill-opacity:1;stroke:#008dff;stroke-width:8.80000019;stroke-miterlimit:4;stroke-dasharray:none;stroke-opacity:1"
         sodipodi:type="arc" />
    </clipPath>
    <filter
       inkscape:collect="always"
       id="filter4645"
       x="-0.21864669"
       width="1.4372934"
       y="-0.2009662"
       height="1.4019324">
      <feGaussianBlur
         inkscape:collect="always"
         stdDeviation="1.1402433"
         id="feGaussianBlur4647" />
    </filter>
    <linearGradient
       inkscape:collect="always"
       xlink:href="#linearGradient4653"
       id="linearGradient4659"
       x1="365.92776"
       y1="304.71133"
       x2="365.92776"
       y2="411.61841"
       gradientUnits="userSpaceOnUse" />
    <clipPath
       clipPathUnits="userSpaceOnUse"
       id="clipPath4663">
      <path
         clip-path="url(#clipPath4511)"
         transform="matrix(0.7890278,-0.6143575,0.6143575,0.7890278,-121.54235,251.74746)"
         d="M 405.71429,405.21933 A 72.85714,72.85714 0 1 1 260.00001,405.21933 A 72.85714,72.85714 0 1 1 405.71429,405.21933 z"
         sodipodi:ry="72.85714"
         sodipodi:rx="72.85714"
         sodipodi:cy="405.21933"
         sodipodi:cx="332.85715"
         id="path4665"
         style="opacity:0.6829971;fill:none;fill-opacity:1;stroke:#008dff;stroke-width:8.80000019;stroke-miterlimit:4;stroke-dasharray:none;stroke-opacity:1;filter:url(#filter4487)"
         sodipodi:type="arc" />
    </clipPath>
    <clipPath
       clipPathUnits="userSpaceOnUse"
       id="clipPath4667">
      <path
         clip-path="url(#clipPath4511)"
         transform="matrix(0.8762886,0,0,0.5886793,74.300136,130.42584)"
         d="M 405.71429,405.21933 A 72.85714,72.85714 0 1 1 260.00001,405.21933 A 72.85714,72.85714 0 1 1 405.71429,405.21933 z"
         sodipodi:ry="72.85714"
         sodipodi:rx="72.85714"
         sodipodi:cy="405.21933"
         sodipodi:cx="332.85715"
         id="path4669"
         style="opacity:0.6829971;fill:none;fill-opacity:1;stroke:#008dff;stroke-width:8.80000019;stroke-miterlimit:4;stroke-dasharray:none;stroke-opacity:1;filter:url(#filter4487)"
         sodipodi:type="arc" />
    </clipPath>
    <clipPath
       clipPathUnits="userSpaceOnUse"
       id="clipPath4671">
      <path
         clip-path="url(#clipPath4511)"
         d="M 405.71429,405.21933 A 72.85714,72.85714 0 1 1 260.00001,405.21933 A 72.85714,72.85714 0 1 1 405.71429,405.21933 z"
         sodipodi:ry="72.85714"
         sodipodi:rx="72.85714"
         sodipodi:cy="405.21933"
         sodipodi:cx="332.85715"
         id="path4673"
         style="opacity:0.6829971;fill:none;fill-opacity:1;stroke:#008dff;stroke-width:8.80000019;stroke-miterlimit:4;stroke-dasharray:none;stroke-opacity:1;filter:url(#filter4487)"
         sodipodi:type="arc" />
    </clipPath>
    <filter
       inkscape:collect="always"
       id="filter4683"
       x="-0.070540899"
       width="1.1410818"
       y="-0.13312038"
       height="1.2662408">
      <feGaussianBlur
         inkscape:collect="always"
         stdDeviation="3.753004"
         id="feGaussianBlur4685" />
    </filter>
    <linearGradient
       inkscape:collect="always"
       xlink:href="#linearGradient4653"
       id="linearGradient4694"
       gradientUnits="userSpaceOnUse"
       x1="365.92776"
       y1="304.71133"
       x2="365.92776"
       y2="411.61841" />
    <linearGradient
       inkscape:collect="always"
       xlink:href="#linearGradient4653"
       id="linearGradient4704"
       gradientUnits="userSpaceOnUse"
       x1="365.92776"
       y1="304.71133"
       x2="365.92776"
       y2="411.61841" />
    <linearGradient
       inkscape:collect="always"
       xlink:href="#linearGradient4653"
       id="linearGradient4714"
       gradientUnits="userSpaceOnUse"
       x1="365.92776"
       y1="304.71133"
       x2="365.92776"
       y2="411.61841" />
    <linearGradient
       inkscape:collect="always"
       xlink:href="#linearGradient4653"
       id="linearGradient4724"
       gradientUnits="userSpaceOnUse"
       x1="365.92776"
       y1="304.71133"
       x2="365.92776"
       y2="411.61841" />
    <linearGradient
       inkscape:collect="always"
       xlink:href="#linearGradient4653"
       id="linearGradient4734"
       gradientUnits="userSpaceOnUse"
       x1="365.92776"
       y1="304.71133"
       x2="365.92776"
       y2="411.61841" />
    <linearGradient
       inkscape:collect="always"
       xlink:href="#linearGradient4653"
       id="linearGradient4744"
       gradientUnits="userSpaceOnUse"
       x1="365.92776"
       y1="304.71133"
       x2="365.92776"
       y2="411.61841" />
    <linearGradient
       inkscape:collect="always"
       xlink:href="#linearGradient4653"
       id="linearGradient4754"
       gradientUnits="userSpaceOnUse"
       x1="365.92776"
       y1="304.71133"
       x2="365.92776"
       y2="411.61841" />
    <linearGradient
       inkscape:collect="always"
       xlink:href="#linearGradient4653"
       id="linearGradient4764"
       gradientUnits="userSpaceOnUse"
       x1="365.92776"
       y1="304.71133"
       x2="365.92776"
       y2="411.61841" />
    <linearGradient
       inkscape:collect="always"
       xlink:href="#linearGradient4653"
       id="linearGradient4774"
       gradientUnits="userSpaceOnUse"
       x1="365.92776"
       y1="304.71133"
       x2="365.92776"
       y2="411.61841" />
    <linearGradient
       inkscape:collect="always"
       xlink:href="#linearGradient4653"
       id="linearGradient4784"
       gradientUnits="userSpaceOnUse"
       x1="365.92776"
       y1="304.71133"
       x2="365.92776"
       y2="411.61841" />
    <linearGradient
       inkscape:collect="always"
       xlink:href="#linearGradient4653"
       id="linearGradient4794"
       gradientUnits="userSpaceOnUse"
       x1="365.92776"
       y1="304.71133"
       x2="365.92776"
       y2="411.61841" />
    <linearGradient
       inkscape:collect="always"
       xlink:href="#linearGradient4653"
       id="linearGradient4804"
       gradientUnits="userSpaceOnUse"
       x1="365.92776"
       y1="304.71133"
       x2="365.92776"
       y2="411.61841" />
  </defs>
  <sodipodi:namedview
     id="base"
     pagecolor="#ffffff"
     bordercolor="#666666"
     borderopacity="1.0"
     gridtolerance="10000"
     guidetolerance="10"
     objecttolerance="10"
     inkscape:pageopacity="0.0"
     inkscape:pageshadow="2"
     inkscape:zoom="0.7"
     inkscape:cx="300.75379"
     inkscape:cy="456.62297"
     inkscape:document-units="px"
     inkscape:current-layer="layer1"
     showgrid="false"
     inkscape:window-width="1280"
     inkscape:window-height="968"
     inkscape:window-x="1436"
     inkscape:window-y="-4" />
  <metadata
     id="metadata3941">
    <rdf:RDF>
      <cc:Work
         rdf:about="">
        <dc:format>image/svg+xml</dc:format>
        <dc:type
           rdf:resource="http://purl.org/dc/dcmitype/StillImage" />
      </cc:Work>
    </rdf:RDF>
  </metadata>
  <g
     inkscape:label="Layer 1"
     inkscape:groupmode="layer"
     id="layer1">
    <g
       id="g4687"
       transform="matrix(0.7058824,0,0,0.7058824,-34.860062,509.66246)">
      <path
         clip-path="url(#clipPath4671)"
         transform="translate(39.190094,-8.0812204)"
         d="M 405.71429,405.21933 A 72.85714,72.85714 0 1 1 260.00001,405.21933 A 72.85714,72.85714 0 1 1 405.71429,405.21933 z"
         sodipodi:ry="72.85714"
         sodipodi:rx="72.85714"
         sodipodi:cy="405.21933"
         sodipodi:cx="332.85715"
         id="path3946"
         style="opacity:0.6829971;fill:none;fill-opacity:1;stroke:#008dff;stroke-width:8.80000019;stroke-miterlimit:4;stroke-dasharray:none;stroke-opacity:1;filter:url(#filter4487)"
         sodipodi:type="arc" />
      <path
         clip-path="url(#clipPath4667)"
         transform="matrix(1.1411765,0,0,1.6987179,-45.599475,-229.63793)"
         d="M 430.32499,354.34677 A 64.397224,39.39595 0 1 1 301.53054,354.34677 A 64.397224,39.39595 0 1 1 430.32499,354.34677 z"
         sodipodi:ry="39.39595"
         sodipodi:rx="64.397224"
         sodipodi:cy="354.34677"
         sodipodi:cx="365.92776"
         id="path4649"
         style="opacity:0.6829971;fill:url(#linearGradient4694);fill-opacity:1;stroke:none;stroke-width:8.80000019;stroke-miterlimit:4;stroke-dasharray:none;stroke-opacity:1;filter:url(#filter4683)"
         sodipodi:type="arc" />
      <path
         clip-path="url(#clipPath4663)"
         transform="matrix(0.7890278,0.6143575,-0.6143575,0.7890278,289.75333,-132.04651)"
         d="M 342.4417,355.862 A 5.3033009,7.5761442 0 1 1 331.8351,355.862 A 5.3033009,7.5761442 0 1 1 342.4417,355.862 z"
         sodipodi:ry="7.5761442"
         sodipodi:rx="5.3033009"
         sodipodi:cy="355.862"
         sodipodi:cx="337.1384"
         id="path4515"
         style="opacity:0.6829971;fill:#ffffff;fill-opacity:1;stroke:none;stroke-width:8.80000019;stroke-miterlimit:4;stroke-dasharray:none;stroke-opacity:1;filter:url(#filter4645)"
         sodipodi:type="arc" />
    </g>
    <g
       transform="translate(-27.142859,557.14285)"
       id="g4696">
      <path
         sodipodi:type="arc"
         style="opacity:0.6829971;fill:none;fill-opacity:1;stroke:#008dff;stroke-width:8.80000019;stroke-miterlimit:4;stroke-dasharray:none;stroke-opacity:1;filter:url(#filter4487)"
         id="path4698"
         sodipodi:cx="332.85715"
         sodipodi:cy="405.21933"
         sodipodi:rx="72.85714"
         sodipodi:ry="72.85714"
         d="M 405.71429,405.21933 A 72.85714,72.85714 0 1 1 260.00001,405.21933 A 72.85714,72.85714 0 1 1 405.71429,405.21933 z"
         transform="translate(39.190094,-8.0812204)"
         clip-path="url(#clipPath4671)" />
      <path
         sodipodi:type="arc"
         style="opacity:0.6829971;fill:url(#linearGradient4704);fill-opacity:1;stroke:none;stroke-width:8.80000019;stroke-miterlimit:4;stroke-dasharray:none;stroke-opacity:1;filter:url(#filter4683)"
         id="path4700"
         sodipodi:cx="365.92776"
         sodipodi:cy="354.34677"
         sodipodi:rx="64.397224"
         sodipodi:ry="39.39595"
         d="M 430.32499,354.34677 A 64.397224,39.39595 0 1 1 301.53054,354.34677 A 64.397224,39.39595 0 1 1 430.32499,354.34677 z"
         transform="matrix(1.1411765,0,0,1.6987179,-45.599475,-229.63793)"
         clip-path="url(#clipPath4667)" />
      <path
         sodipodi:type="arc"
         style="opacity:0.6829971;fill:#ffffff;fill-opacity:1;stroke:none;stroke-width:8.80000019;stroke-miterlimit:4;stroke-dasharray:none;stroke-opacity:1;filter:url(#filter4645)"
         id="path4702"
         sodipodi:cx="337.1384"
         sodipodi:cy="355.862"
         sodipodi:rx="5.3033009"
         sodipodi:ry="7.5761442"
         d="M 342.4417,355.862 A 5.3033009,7.5761442 0 1 1 331.8351,355.862 A 5.3033009,7.5761442 0 1 1 342.4417,355.862 z"
         transform="matrix(0.7890278,0.6143575,-0.6143575,0.7890278,289.75333,-132.04651)"
         clip-path="url(#clipPath4663)" />
    </g>
    <g
       id="g4706"
       transform="matrix(0.6666667,0,0,0.6666667,141.15861,286.66509)">
      <path
         clip-path="url(#clipPath4671)"
         transform="translate(39.190094,-8.0812204)"
         d="M 405.71429,405.21933 A 72.85714,72.85714 0 1 1 260.00001,405.21933 A 72.85714,72.85714 0 1 1 405.71429,405.21933 z"
         sodipodi:ry="72.85714"
         sodipodi:rx="72.85714"
         sodipodi:cy="405.21933"
         sodipodi:cx="332.85715"
         id="path4708"
         style="opacity:0.6829971;fill:none;fill-opacity:1;stroke:#008dff;stroke-width:8.80000019;stroke-miterlimit:4;stroke-dasharray:none;stroke-opacity:1;filter:url(#filter4487)"
         sodipodi:type="arc" />
      <path
         clip-path="url(#clipPath4667)"
         transform="matrix(1.1411765,0,0,1.6987179,-45.599475,-229.63793)"
         d="M 430.32499,354.34677 A 64.397224,39.39595 0 1 1 301.53054,354.34677 A 64.397224,39.39595 0 1 1 430.32499,354.34677 z"
         sodipodi:ry="39.39595"
         sodipodi:rx="64.397224"
         sodipodi:cy="354.34677"
         sodipodi:cx="365.92776"
         id="path4710"
         style="opacity:0.6829971;fill:url(#linearGradient4714);fill-opacity:1;stroke:none;stroke-width:8.80000019;stroke-miterlimit:4;stroke-dasharray:none;stroke-opacity:1;filter:url(#filter4683)"
         sodipodi:type="arc" />
      <path
         clip-path="url(#clipPath4663)"
         transform="matrix(0.7890278,0.6143575,-0.6143575,0.7890278,289.75333,-132.04651)"
         d="M 342.4417,355.862 A 5.3033009,7.5761442 0 1 1 331.8351,355.862 A 5.3033009,7.5761442 0 1 1 342.4417,355.862 z"
         sodipodi:ry="7.5761442"
         sodipodi:rx="5.3033009"
         sodipodi:cy="355.862"
         sodipodi:cx="337.1384"
         id="path4712"
         style="opacity:0.6829971;fill:#ffffff;fill-opacity:1;stroke:none;stroke-width:8.80000019;stroke-miterlimit:4;stroke-dasharray:none;stroke-opacity:1;filter:url(#filter4645)"
         sodipodi:type="arc" />
    </g>
    <g
       transform="matrix(1.1372549,0,0,1.1372549,1.7918358,288.34799)"
       id="g4716">
      <path
         sodipodi:type="arc"
         style="opacity:0.6829971;fill:none;fill-opacity:1;stroke:#008dff;stroke-width:8.80000019;stroke-miterlimit:4;stroke-dasharray:none;stroke-opacity:1;filter:url(#filter4487)"
         id="path4718"
         sodipodi:cx="332.85715"
         sodipodi:cy="405.21933"
         sodipodi:rx="72.85714"
         sodipodi:ry="72.85714"
         d="M 405.71429,405.21933 A 72.85714,72.85714 0 1 1 260.00001,405.21933 A 72.85714,72.85714 0 1 1 405.71429,405.21933 z"
         transform="translate(39.190094,-8.0812204)"
         clip-path="url(#clipPath4671)" />
      <path
         sodipodi:type="arc"
         style="opacity:0.6829971;fill:url(#linearGradient4724);fill-opacity:1;stroke:none;stroke-width:8.80000019;stroke-miterlimit:4;stroke-dasharray:none;stroke-opacity:1;filter:url(#filter4683)"
         id="path4720"
         sodipodi:cx="365.92776"
         sodipodi:cy="354.34677"
         sodipodi:rx="64.397224"
         sodipodi:ry="39.39595"
         d="M 430.32499,354.34677 A 64.397224,39.39595 0 1 1 301.53054,354.34677 A 64.397224,39.39595 0 1 1 430.32499,354.34677 z"
         transform="matrix(1.1411765,0,0,1.6987179,-45.599475,-229.63793)"
         clip-path="url(#clipPath4667)" />
      <path
         sodipodi:type="arc"
         style="opacity:0.6829971;fill:#ffffff;fill-opacity:1;stroke:none;stroke-width:8.80000019;stroke-miterlimit:4;stroke-dasharray:none;stroke-opacity:1;filter:url(#filter4645)"
         id="path4722"
         sodipodi:cx="337.1384"
         sodipodi:cy="355.862"
         sodipodi:rx="5.3033009"
         sodipodi:ry="7.5761442"
         d="M 342.4417,355.862 A 5.3033009,7.5761442 0 1 1 331.8351,355.862 A 5.3033009,7.5761442 0 1 1 342.4417,355.862 z"
         transform="matrix(0.7890278,0.6143575,-0.6143575,0.7890278,289.75333,-132.04651)"
         clip-path="url(#clipPath4663)" />
    </g>
    <g
       id="g4726"
       transform="matrix(0.3921568,0,0,0.3921568,53.289223,317.11197)">
      <path
         clip-path="url(#clipPath4671)"
         transform="translate(39.190094,-8.0812204)"
         d="M 405.71429,405.21933 A 72.85714,72.85714 0 1 1 260.00001,405.21933 A 72.85714,72.85714 0 1 1 405.71429,405.21933 z"
         sodipodi:ry="72.85714"
         sodipodi:rx="72.85714"
         sodipodi:cy="405.21933"
         sodipodi:cx="332.85715"
         id="path4728"
         style="opacity:0.6829971;fill:none;fill-opacity:1;stroke:#008dff;stroke-width:8.80000019;stroke-miterlimit:4;stroke-dasharray:none;stroke-opacity:1;filter:url(#filter4487)"
         sodipodi:type="arc" />
      <path
         clip-path="url(#clipPath4667)"
         transform="matrix(1.1411765,0,0,1.6987179,-45.599475,-229.63793)"
         d="M 430.32499,354.34677 A 64.397224,39.39595 0 1 1 301.53054,354.34677 A 64.397224,39.39595 0 1 1 430.32499,354.34677 z"
         sodipodi:ry="39.39595"
         sodipodi:rx="64.397224"
         sodipodi:cy="354.34677"
         sodipodi:cx="365.92776"
         id="path4730"
         style="opacity:0.6829971;fill:url(#linearGradient4734);fill-opacity:1;stroke:none;stroke-width:8.80000019;stroke-miterlimit:4;stroke-dasharray:none;stroke-opacity:1;filter:url(#filter4683)"
         sodipodi:type="arc" />
      <path
         clip-path="url(#clipPath4663)"
         transform="matrix(0.7890278,0.6143575,-0.6143575,0.7890278,289.75333,-132.04651)"
         d="M 342.4417,355.862 A 5.3033009,7.5761442 0 1 1 331.8351,355.862 A 5.3033009,7.5761442 0 1 1 342.4417,355.862 z"
         sodipodi:ry="7.5761442"
         sodipodi:rx="5.3033009"
         sodipodi:cy="355.862"
         sodipodi:cx="337.1384"
         id="path4732"
         style="opacity:0.6829971;fill:#ffffff;fill-opacity:1;stroke:none;stroke-width:8.80000019;stroke-miterlimit:4;stroke-dasharray:none;stroke-opacity:1;filter:url(#filter4645)"
         sodipodi:type="arc" />
    </g>
    <g
       id="g4736"
       transform="translate(-114.28571,227.14285)">
      <path
         clip-path="url(#clipPath4671)"
         transform="translate(39.190094,-8.0812204)"
         d="M 405.71429,405.21933 A 72.85714,72.85714 0 1 1 260.00001,405.21933 A 72.85714,72.85714 0 1 1 405.71429,405.21933 z"
         sodipodi:ry="72.85714"
         sodipodi:rx="72.85714"
         sodipodi:cy="405.21933"
         sodipodi:cx="332.85715"
         id="path4738"
         style="opacity:0.6829971;fill:none;fill-opacity:1;stroke:#008dff;stroke-width:8.80000019;stroke-miterlimit:4;stroke-dasharray:none;stroke-opacity:1;filter:url(#filter4487)"
         sodipodi:type="arc" />
      <path
         clip-path="url(#clipPath4667)"
         transform="matrix(1.1411765,0,0,1.6987179,-45.599475,-229.63793)"
         d="M 430.32499,354.34677 A 64.397224,39.39595 0 1 1 301.53054,354.34677 A 64.397224,39.39595 0 1 1 430.32499,354.34677 z"
         sodipodi:ry="39.39595"
         sodipodi:rx="64.397224"
         sodipodi:cy="354.34677"
         sodipodi:cx="365.92776"
         id="path4740"
         style="opacity:0.6829971;fill:url(#linearGradient4744);fill-opacity:1;stroke:none;stroke-width:8.80000019;stroke-miterlimit:4;stroke-dasharray:none;stroke-opacity:1;filter:url(#filter4683)"
         sodipodi:type="arc" />
      <path
         clip-path="url(#clipPath4663)"
         transform="matrix(0.7890278,0.6143575,-0.6143575,0.7890278,289.75333,-132.04651)"
         d="M 342.4417,355.862 A 5.3033009,7.5761442 0 1 1 331.8351,355.862 A 5.3033009,7.5761442 0 1 1 342.4417,355.862 z"
         sodipodi:ry="7.5761442"
         sodipodi:rx="5.3033009"
         sodipodi:cy="355.862"
         sodipodi:cx="337.1384"
         id="path4742"
         style="opacity:0.6829971;fill:#ffffff;fill-opacity:1;stroke:none;stroke-width:8.80000019;stroke-miterlimit:4;stroke-dasharray:none;stroke-opacity:1;filter:url(#filter4645)"
         sodipodi:type="arc" />
    </g>
    <g
       transform="matrix(0.5882353,0,0,0.5882353,94.624498,193.52745)"
       id="g4746">
      <path
         sodipodi:type="arc"
         style="opacity:0.6829971;fill:none;fill-opacity:1;stroke:#008dff;stroke-width:8.80000019;stroke-miterlimit:4;stroke-dasharray:none;stroke-opacity:1;filter:url(#filter4487)"
         id="path4748"
         sodipodi:cx="332.85715"
         sodipodi:cy="405.21933"
         sodipodi:rx="72.85714"
         sodipodi:ry="72.85714"
         d="M 405.71429,405.21933 A 72.85714,72.85714 0 1 1 260.00001,405.21933 A 72.85714,72.85714 0 1 1 405.71429,405.21933 z"
         transform="translate(39.190094,-8.0812204)"
         clip-path="url(#clipPath4671)" />
      <path
         sodipodi:type="arc"
         style="opacity:0.6829971;fill:url(#linearGradient4754);fill-opacity:1;stroke:none;stroke-width:8.80000019;stroke-miterlimit:4;stroke-dasharray:none;stroke-opacity:1;filter:url(#filter4683)"
         id="path4750"
         sodipodi:cx="365.92776"
         sodipodi:cy="354.34677"
         sodipodi:rx="64.397224"
         sodipodi:ry="39.39595"
         d="M 430.32499,354.34677 A 64.397224,39.39595 0 1 1 301.53054,354.34677 A 64.397224,39.39595 0 1 1 430.32499,354.34677 z"
         transform="matrix(1.1411765,0,0,1.6987179,-45.599475,-229.63793)"
         clip-path="url(#clipPath4667)" />
      <path
         sodipodi:type="arc"
         style="opacity:0.6829971;fill:#ffffff;fill-opacity:1;stroke:none;stroke-width:8.80000019;stroke-miterlimit:4;stroke-dasharray:none;stroke-opacity:1;filter:url(#filter4645)"
         id="path4752"
         sodipodi:cx="337.1384"
         sodipodi:cy="355.862"
         sodipodi:rx="5.3033009"
         sodipodi:ry="7.5761442"
         d="M 342.4417,355.862 A 5.3033009,7.5761442 0 1 1 331.8351,355.862 A 5.3033009,7.5761442 0 1 1 342.4417,355.862 z"
         transform="matrix(0.7890278,0.6143575,-0.6143575,0.7890278,289.75333,-132.04651)"
         clip-path="url(#clipPath4663)" />
    </g>
    <g
       id="g4756"
       transform="matrix(0.7843137,0,0,0.7843137,150.24547,27.085785)">
      <path
         clip-path="url(#clipPath4671)"
         transform="translate(39.190094,-8.0812204)"
         d="M 405.71429,405.21933 A 72.85714,72.85714 0 1 1 260.00001,405.21933 A 72.85714,72.85714 0 1 1 405.71429,405.21933 z"
         sodipodi:ry="72.85714"
         sodipodi:rx="72.85714"
         sodipodi:cy="405.21933"
         sodipodi:cx="332.85715"
         id="path4758"
         style="opacity:0.6829971;fill:none;fill-opacity:1;stroke:#008dff;stroke-width:8.80000019;stroke-miterlimit:4;stroke-dasharray:none;stroke-opacity:1;filter:url(#filter4487)"
         sodipodi:type="arc" />
      <path
         clip-path="url(#clipPath4667)"
         transform="matrix(1.1411765,0,0,1.6987179,-45.599475,-229.63793)"
         d="M 430.32499,354.34677 A 64.397224,39.39595 0 1 1 301.53054,354.34677 A 64.397224,39.39595 0 1 1 430.32499,354.34677 z"
         sodipodi:ry="39.39595"
         sodipodi:rx="64.397224"
         sodipodi:cy="354.34677"
         sodipodi:cx="365.92776"
         id="path4760"
         style="opacity:0.6829971;fill:url(#linearGradient4764);fill-opacity:1;stroke:none;stroke-width:8.80000019;stroke-miterlimit:4;stroke-dasharray:none;stroke-opacity:1;filter:url(#filter4683)"
         sodipodi:type="arc" />
      <path
         clip-path="url(#clipPath4663)"
         transform="matrix(0.7890278,0.6143575,-0.6143575,0.7890278,289.75333,-132.04651)"
         d="M 342.4417,355.862 A 5.3033009,7.5761442 0 1 1 331.8351,355.862 A 5.3033009,7.5761442 0 1 1 342.4417,355.862 z"
         sodipodi:ry="7.5761442"
         sodipodi:rx="5.3033009"
         sodipodi:cy="355.862"
         sodipodi:cx="337.1384"
         id="path4762"
         style="opacity:0.6829971;fill:#ffffff;fill-opacity:1;stroke:none;stroke-width:8.80000019;stroke-miterlimit:4;stroke-dasharray:none;stroke-opacity:1;filter:url(#filter4645)"
         sodipodi:type="arc" />
    </g>
    <g
       transform="matrix(0.3921569,0,0,0.3921569,196.14634,104.2548)"
       id="g4766">
      <path
         sodipodi:type="arc"
         style="opacity:0.6829971;fill:none;fill-opacity:1;stroke:#008dff;stroke-width:8.80000019;stroke-miterlimit:4;stroke-dasharray:none;stroke-opacity:1;filter:url(#filter4487)"
         id="path4768"
         sodipodi:cx="332.85715"
         sodipodi:cy="405.21933"
         sodipodi:rx="72.85714"
         sodipodi:ry="72.85714"
         d="M 405.71429,405.21933 A 72.85714,72.85714 0 1 1 260.00001,405.21933 A 72.85714,72.85714 0 1 1 405.71429,405.21933 z"
         transform="translate(39.190094,-8.0812204)"
         clip-path="url(#clipPath4671)" />
      <path
         sodipodi:type="arc"
         style="opacity:0.6829971;fill:url(#linearGradient4774);fill-opacity:1;stroke:none;stroke-width:8.80000019;stroke-miterlimit:4;stroke-dasharray:none;stroke-opacity:1;filter:url(#filter4683)"
         id="path4770"
         sodipodi:cx="365.92776"
         sodipodi:cy="354.34677"
         sodipodi:rx="64.397224"
         sodipodi:ry="39.39595"
         d="M 430.32499,354.34677 A 64.397224,39.39595 0 1 1 301.53054,354.34677 A 64.397224,39.39595 0 1 1 430.32499,354.34677 z"
         transform="matrix(1.1411765,0,0,1.6987179,-45.599475,-229.63793)"
         clip-path="url(#clipPath4667)" />
      <path
         sodipodi:type="arc"
         style="opacity:0.6829971;fill:#ffffff;fill-opacity:1;stroke:none;stroke-width:8.80000019;stroke-miterlimit:4;stroke-dasharray:none;stroke-opacity:1;filter:url(#filter4645)"
         id="path4772"
         sodipodi:cx="337.1384"
         sodipodi:cy="355.862"
         sodipodi:rx="5.3033009"
         sodipodi:ry="7.5761442"
         d="M 342.4417,355.862 A 5.3033009,7.5761442 0 1 1 331.8351,355.862 A 5.3033009,7.5761442 0 1 1 342.4417,355.862 z"
         transform="matrix(0.7890278,0.6143575,-0.6143575,0.7890278,289.75333,-132.04651)"
         clip-path="url(#clipPath4663)" />
    </g>
    <g
       id="g4776"
       transform="matrix(0.2745098,0,0,0.2745098,302.77375,70.976925)">
      <path
         clip-path="url(#clipPath4671)"
         transform="translate(39.190094,-8.0812204)"
         d="M 405.71429,405.21933 A 72.85714,72.85714 0 1 1 260.00001,405.21933 A 72.85714,72.85714 0 1 1 405.71429,405.21933 z"
         sodipodi:ry="72.85714"
         sodipodi:rx="72.85714"
         sodipodi:cy="405.21933"
         sodipodi:cx="332.85715"
         id="path4778"
         style="opacity:0.6829971;fill:none;fill-opacity:1;stroke:#008dff;stroke-width:8.80000019;stroke-miterlimit:4;stroke-dasharray:none;stroke-opacity:1;filter:url(#filter4487)"
         sodipodi:type="arc" />
      <path
         clip-path="url(#clipPath4667)"
         transform="matrix(1.1411765,0,0,1.6987179,-45.599475,-229.63793)"
         d="M 430.32499,354.34677 A 64.397224,39.39595 0 1 1 301.53054,354.34677 A 64.397224,39.39595 0 1 1 430.32499,354.34677 z"
         sodipodi:ry="39.39595"
         sodipodi:rx="64.397224"
         sodipodi:cy="354.34677"
         sodipodi:cx="365.92776"
         id="path4780"
         style="opacity:0.6829971;fill:url(#linearGradient4784);fill-opacity:1;stroke:none;stroke-width:8.80000019;stroke-miterlimit:4;stroke-dasharray:none;stroke-opacity:1;filter:url(#filter4683)"
         sodipodi:type="arc" />
      <path
         clip-path="url(#clipPath4663)"
         transform="matrix(0.7890278,0.6143575,-0.6143575,0.7890278,289.75333,-132.04651)"
         d="M 342.4417,355.862 A 5.3033009,7.5761442 0 1 1 331.8351,355.862 A 5.3033009,7.5761442 0 1 1 342.4417,355.862 z"
         sodipodi:ry="7.5761442"
         sodipodi:rx="5.3033009"
         sodipodi:cy="355.862"
         sodipodi:cx="337.1384"
         id="path4782"
         style="opacity:0.6829971;fill:#ffffff;fill-opacity:1;stroke:none;stroke-width:8.80000019;stroke-miterlimit:4;stroke-dasharray:none;stroke-opacity:1;filter:url(#filter4645)"
         sodipodi:type="arc" />
    </g>
    <g
       transform="matrix(0.2745098,0,0,0.2745098,172.77376,55.262639)"
       id="g4786">
      <path
         sodipodi:type="arc"
         style="opacity:0.6829971;fill:none;fill-opacity:1;stroke:#008dff;stroke-width:8.80000019;stroke-miterlimit:4;stroke-dasharray:none;stroke-opacity:1;filter:url(#filter4487)"
         id="path4788"
         sodipodi:cx="332.85715"
         sodipodi:cy="405.21933"
         sodipodi:rx="72.85714"
         sodipodi:ry="72.85714"
         d="M 405.71429,405.21933 A 72.85714,72.85714 0 1 1 260.00001,405.21933 A 72.85714,72.85714 0 1 1 405.71429,405.21933 z"
         transform="translate(39.190094,-8.0812204)"
         clip-path="url(#clipPath4671)" />
      <path
         sodipodi:type="arc"
         style="opacity:0.6829971;fill:url(#linearGradient4794);fill-opacity:1;stroke:none;stroke-width:8.80000019;stroke-miterlimit:4;stroke-dasharray:none;stroke-opacity:1;filter:url(#filter4683)"
         id="path4790"
         sodipodi:cx="365.92776"
         sodipodi:cy="354.34677"
         sodipodi:rx="64.397224"
         sodipodi:ry="39.39595"
         d="M 430.32499,354.34677 A 64.397224,39.39595 0 1 1 301.53054,354.34677 A 64.397224,39.39595 0 1 1 430.32499,354.34677 z"
         transform="matrix(1.1411765,0,0,1.6987179,-45.599475,-229.63793)"
         clip-path="url(#clipPath4667)" />
      <path
         sodipodi:type="arc"
         style="opacity:0.6829971;fill:#ffffff;fill-opacity:1;stroke:none;stroke-width:8.80000019;stroke-miterlimit:4;stroke-dasharray:none;stroke-opacity:1;filter:url(#filter4645)"
         id="path4792"
         sodipodi:cx="337.1384"
         sodipodi:cy="355.862"
         sodipodi:rx="5.3033009"
         sodipodi:ry="7.5761442"
         d="M 342.4417,355.862 A 5.3033009,7.5761442 0 1 1 331.8351,355.862 A 5.3033009,7.5761442 0 1 1 342.4417,355.862 z"
         transform="matrix(0.7890278,0.6143575,-0.6143575,0.7890278,289.75333,-132.04651)"
         clip-path="url(#clipPath4663)" />
    </g>
    <g
       transform="matrix(0.1960784,0,0,0.1960784,270.52535,-6.4464128)"
       id="g4796">
      <path
         sodipodi:type="arc"
         style="opacity:0.6829971;fill:none;fill-opacity:1;stroke:#008dff;stroke-width:8.80000019;stroke-miterlimit:4;stroke-dasharray:none;stroke-opacity:1;filter:url(#filter4487)"
         id="path4798"
         sodipodi:cx="332.85715"
         sodipodi:cy="405.21933"
         sodipodi:rx="72.85714"
         sodipodi:ry="72.85714"
         d="M 405.71429,405.21933 A 72.85714,72.85714 0 1 1 260.00001,405.21933 A 72.85714,72.85714 0 1 1 405.71429,405.21933 z"
         transform="translate(39.190094,-8.0812204)"
         clip-path="url(#clipPath4671)" />
      <path
         sodipodi:type="arc"
         style="opacity:0.6829971;fill:url(#linearGradient4804);fill-opacity:1;stroke:none;stroke-width:8.80000019;stroke-miterlimit:4;stroke-dasharray:none;stroke-opacity:1;filter:url(#filter4683)"
         id="path4800"
         sodipodi:cx="365.92776"
         sodipodi:cy="354.34677"
         sodipodi:rx="64.397224"
         sodipodi:ry="39.39595"
         d="M 430.32499,354.34677 A 64.397224,39.39595 0 1 1 301.53054,354.34677 A 64.397224,39.39595 0 1 1 430.32499,354.34677 z"
         transform="matrix(1.1411765,0,0,1.6987179,-45.599475,-229.63793)"
         clip-path="url(#clipPath4667)" />
      <path
         sodipodi:type="arc"
         style="opacity:0.6829971;fill:#ffffff;fill-opacity:1;stroke:none;stroke-width:8.80000019;stroke-miterlimit:4;stroke-dasharray:none;stroke-opacity:1;filter:url(#filter4645)"
         id="path4802"
         sodipodi:cx="337.1384"
         sodipodi:cy="355.862"
         sodipodi:rx="5.3033009"
         sodipodi:ry="7.5761442"
         d="M 342.4417,355.862 A 5.3033009,7.5761442 0 1 1 331.8351,355.862 A 5.3033009,7.5761442 0 1 1 342.4417,355.862 z"
         transform="matrix(0.7890278,0.6143575,-0.6143575,0.7890278,289.75333,-132.04651)"
         clip-path="url(#clipPath4663)" />
    </g>
  </g>
</svg>
